PathFileType  4	(X/Y/Z) C:\Users\antoi\Documents\MyRepositories\mobilecap\ResultsAnalysis
DataRate	CameraRate	NumFrames	NumMarkers	Units	OrigDataRate	OrigDataStartFrame	OrigNumFrames
100.0	100.0	4	51	mm	100.0	238	271
Frame#	Time	r_knee			r_shank_antsup			r_ankle			r_calc			r_5meta			r_toe			L_knee			L_shank_antsup			L_ankle			L_calc			L_5meta			L_toe			r_sh2			r_sh3			r_sh4			L_sh2			L_sh3			r_thigh1			r_thigh2			r_thigh3			r_thigh4			r_thigh5			L_thigh1			L_thigh2			L_thigh3			L_thigh4			r.ASIS			r.PSIS			L.ASIS			L.PSIS			C7			R_Shoulder			L_Shoulder			R_Sternum			L_Sternum			R_humerus			R_elbow_med			R_elbow_lat			R_forearm			R_wrist_radius			R_wrist_ulna			L_humerus			L_elbow_med			L_elbow_lat			L_forearm			L_wrist_radius			L_wrist_ulna			R_HJC			L_HJC			R_HJC_reg			L_HJC_reg			
		X1	Y1	Z1	X2	Y2	Z2	X3	Y3	Z3	X4	Y4	Z4	X5	Y5	Z5	X6	Y6	Z6	X7	Y7	Z7	X8	Y8	Z8	X9	Y9	Z9	X10	Y10	Z10	X11	Y11	Z11	X12	Y12	Z12	X13	Y13	Z13	X14	Y14	Z14	X15	Y15	Z15	X16	Y16	Z16	X17	Y17	Z17	X18	Y18	Z18	X19	Y19	Z19	X20	Y20	Z20	X21	Y21	Z21	X22	Y22	Z22	X23	Y23	Z23	X24	Y24	Z24	X25	Y25	Z25	X26	Y26	Z26	X27	Y27	Z27	X28	Y28	Z28	X29	Y29	Z29	X30	Y30	Z30	X31	Y31	Z31	X32	Y32	Z32	X33	Y33	Z33	X34	Y34	Z34	X35	Y35	Z35	X36	Y36	Z36	X37	Y37	Z37	X38	Y38	Z38	X39	Y39	Z39	X40	Y40	Z40	X41	Y41	Z41	X42	Y42	Z42	X43	Y43	Z43	X44	Y44	Z44	X45	Y45	Z45	X46	Y46	Z46	X47	Y47	Z47	X48	Y48	Z48	X49	Y49	Z49	X50	Y50	Z50	X51	Y51	Z51	

238	2.37000000	-170.36303	899.72758	-425.01034	-157.37965	818.14844	-415.20988	-249.05478	469.18821	-454.70413	-318.06612	459.09622	-513.46868	-162.54275	330.89442	-434.05020	-111.59267	347.77258	-483.02945	-170.84199	911.56685	-739.75850	-149.35738	796.93793	-768.40554	-206.48612	463.66244	-759.82524	-272.54400	435.76891	-703.39168	-44.09263	372.13112	-752.02907	-87.20724	340.01088	-800.45175	-173.10904	705.83717	-411.88308	-231.20077	827.56358	-400.89931	-254.53261	715.01053	-406.71107	-238.59276	808.49326	-759.21989	-241.45052	688.01665	-768.17792	-75.21586	1213.98852	-381.80524	-72.15686	1104.90918	-400.47613	-125.16158	1074.09424	-373.76727	-189.44077	1205.50076	-375.79378	-178.19143	1088.80603	-383.67175	-96.90687	1234.32091	-749.25399	-90.96038	1096.74484	-756.11264	-214.53870	1226.69626	-735.59293	-199.62400	1088.67491	-748.32146	-45.19352	1421.22437	-429.11827	-231.67797	1485.94497	-492.15161	-61.24146	1422.72545	-688.15796	-237.90836	1486.02459	-598.28715	-271.42869	1973.45739	-550.01002	-223.41804	1985.70401	-405.13270	-213.99224	1976.38987	-686.17360	-106.33452	1937.47362	-513.23603	-108.01899	1934.34193	-574.54381	-241.53889	1881.38704	-172.90837	-215.33386	1760.08930	-124.63193	-241.25916	1843.64805	-91.18673	-92.50836	1897.47880	-120.52152	15.58114	1917.25222	-155.18884	6.96282	1925.27511	-112.66541	-224.90868	1881.68473	-912.28132	-225.81345	1753.42390	-969.76015	-226.79249	1836.51506	-994.19869	-74.15553	1884.58820	-936.10060	-8.03594	1909.10649	-872.27158	12.75260	1897.72929	-901.94082	-137.31937	1353.81297	-430.21692	-150.24682	1355.48038	-660.21655	-130.27028	1357.02026	-461.05604	-140.30857	1357.14865	-632.05755	
239	2.38000000	-168.55846	897.72465	-424.27839	-155.05986	816.30522	-414.65824	-243.56724	466.29386	-453.27512	-312.45940	455.19584	-511.75325	-155.45284	329.73125	-430.91021	-104.69374	346.75536	-479.99611	-170.04865	909.17710	-739.22903	-148.04879	794.52676	-767.26222	-203.64318	461.65960	-758.66631	-269.31433	432.95050	-702.03900	-40.95580	370.43398	-753.02104	-84.77094	338.31383	-800.00871	-169.54733	703.92644	-410.74367	-229.22265	825.39552	-399.50731	-251.15171	712.34556	-405.70330	-237.27311	805.65067	-758.53451	-239.38088	685.09313	-767.43937	-75.97927	1212.41166	-381.67783	-72.18429	1103.35614	-400.69349	-124.95796	1072.19977	-373.68430	-190.05049	1203.28114	-376.03991	-178.09933	1086.52531	-383.87220	-96.17836	1231.67920	-748.63323	-90.19600	1094.11292	-754.96749	-213.82156	1224.13120	-735.35595	-198.93440	1086.04466	-747.77228	-45.56218	1419.05325	-428.51796	-231.68697	1484.04898	-492.97646	-60.33591	1420.15226	-687.66489	-237.32457	1484.01011	-599.15404	-269.86643	1971.16093	-549.94155	-221.48996	1984.10548	-405.07974	-213.28162	1975.62394	-685.61637	-104.58030	1935.52955	-513.08668	-106.32965	1932.69892	-574.78294	-248.73654	1883.91024	-173.56459	-227.71747	1762.31958	-123.21073	-251.08383	1847.11800	-90.81132	-97.51921	1892.04823	-112.40487	13.49691	1905.01859	-142.66843	3.60626	1913.55002	-99.56312	-231.22018	1884.05665	-911.63868	-237.64064	1756.75363	-970.04275	-236.29822	1839.98958	-994.04644	-81.31255	1882.11142	-938.18410	-13.65049	1903.96754	-875.19063	6.42631	1892.08328	-905.07835	-137.97390	1351.87286	-430.13588	-149.53520	1353.11936	-660.20954	-130.66753	1354.89330	-460.85221	-139.75021	1354.83059	-631.92761	
240	2.39000000	-166.80497	894.91288	-423.26691	-152.63710	813.59509	-413.78528	-237.94242	462.51935	-451.45423	-306.87338	450.64921	-509.60985	-148.47484	327.25709	-428.25618	-97.99916	344.36828	-477.61167	-169.03895	905.76946	-738.65242	-146.64778	791.10139	-766.28432	-200.98890	458.75567	-757.61928	-266.46153	429.32098	-700.67963	-38.33537	367.57568	-753.75912	-81.90532	337.84978	-803.48614	-165.91121	701.11321	-409.37383	-226.80425	821.90586	-398.54084	-247.61747	708.66408	-404.31085	-235.89334	801.95977	-757.97961	-237.37820	681.15689	-766.85613	-76.51401	1209.87092	-381.28034	-71.94285	1100.92870	-400.46029	-124.61713	1069.36869	-373.43699	-190.55030	1200.14013	-376.26868	-177.90822	1083.47350	-383.68452	-95.33290	1228.16838	-748.08415	-89.24074	1090.52850	-753.94271	-213.02258	1220.52506	-735.30395	-198.02808	1082.43839	-747.38743	-46.14919	1415.77447	-428.14439	-231.79135	1480.56788	-494.05053	-59.42967	1416.57391	-687.16248	-236.94271	1480.51296	-600.10849	-268.37222	1967.92722	-549.50920	-219.40876	1981.53598	-405.49663	-212.16092	1974.01023	-684.86683	-102.66163	1932.57585	-512.86732	-104.49302	1930.10778	-574.84697	-254.68288	1885.65286	-174.85748	-239.57341	1764.37146	-122.29295	-260.49954	1850.11919	-90.79417	-103.00480	1885.77621	-104.10108	10.14487	1892.25626	-128.94525	-1.00488	1900.78934	-86.69235	-237.51834	1886.10684	-910.51863	-249.98578	1759.83253	-969.98608	-246.14626	1842.95755	-993.25355	-88.94766	1879.13600	-939.92169	-19.70779	1898.28195	-878.13518	-0.49510	1885.74454	-908.13563	-138.58487	1348.57635	-430.25800	-148.66205	1349.51663	-660.40298	-130.87258	1351.48579	-460.82893	-139.17664	1351.39721	-631.80548	
241	2.40000000	-165.25447	890.99243	-422.25247	-150.20201	809.89215	-412.55800	-232.20947	458.01053	-449.10398	-301.30748	445.34879	-507.17076	-141.54186	323.43673	-426.13806	-91.39738	340.76782	-475.75704	-167.95445	901.18246	-737.70211	-145.10258	786.74375	-765.59315	-198.69013	454.86036	-756.39983	-263.88276	424.77067	-699.39492	-36.04082	363.77371	-754.18413	-79.16782	336.45608	-807.04231	-162.46271	697.23686	-407.96442	-224.12974	817.17114	-398.02843	-244.00398	703.92921	-402.52890	-234.42183	797.35275	-757.57955	-235.52395	676.44141	-766.41626	-76.66196	1206.30021	-380.79518	-71.55077	1097.51575	-399.74699	-124.18906	1065.69714	-373.05851	-190.72148	1196.12949	-376.40262	-177.52597	1079.58479	-383.17757	-94.46855	1223.74962	-747.59821	-88.21624	1086.04666	-753.18965	-212.22708	1215.99058	-735.67631	-196.99093	1077.88841	-747.28813	-46.87013	1411.36287	-428.04694	-232.05082	1475.73423	-495.04501	-58.57159	1411.98989	-686.84169	-236.72103	1475.73081	-601.02180	-266.88519	1963.94124	-548.58273	-217.27390	1978.21243	-405.71132	-210.54305	1971.77963	-684.27646	-100.68045	1928.65873	-512.66712	-102.52965	1926.49985	-574.71620	-259.31138	1886.47498	-176.41629	-251.25062	1765.92738	-121.68193	-269.41316	1852.51984	-91.10455	-109.07272	1878.78388	-95.99131	5.34359	1878.78093	-115.10064	-6.84924	1887.17910	-73.49679	-243.72720	1887.58326	-908.87855	-262.72660	1762.11672	-969.18813	-256.37204	1845.10223	-991.71775	-97.08309	1875.43745	-941.29035	-26.16037	1891.85013	-880.84511	-7.97086	1878.70453	-911.26195	-139.13426	1343.99040	-430.55314	-147.83161	1344.80351	-660.75618	-131.06925	1346.86156	-461.10984	-138.59819	1346.85640	-631.92332	
